/vscmnt/brussel_pixiu_data/_data_brussel/112/vsc11236/PredSimResults/SUBJ10opt3D/weighted-LRposFixed/expIG/worker_02.mot
version=1
nRows=8
nColumns=50
inDegrees=yes
endheader
                time	         pelvis_tilt	         pelvis_list	     pelvis_rotation	           pelvis_tx	           pelvis_ty	           pelvis_tz	       hip_flexion_r	     hip_adduction_r	      hip_rotation_r	        knee_angle_r	       ankle_angle_r	         mtp_angle_r	       hip_flexion_l	     hip_adduction_l	      hip_rotation_l	        knee_angle_l	       ankle_angle_l	         mtp_angle_l	    lumbar_extension	      lumbar_bending	     lumbar_rotation	 ercspn_r/activation	 intobl_r/activation	 extobl_r/activation	    abd_r/activation	    add_r/activation	hamstrings_r/activation	bifemsh_r/activation	glut_max_r/activation	iliopsoas_r/activation	rect_fem_r/activation	  vasti_r/activation	gastroc_r/activation	 soleus_r/activation	tib_ant_r/activation	 ercspn_l/activation	 intobl_l/activation	 extobl_l/activation	    abd_l/activation	    add_l/activation	hamstrings_l/activation	bifemsh_l/activation	glut_max_l/activation	iliopsoas_l/activation	rect_fem_l/activation	  vasti_l/activation	gastroc_l/activation	 soleus_l/activation	tib_ant_l/activation	
          1.72703453	         -4.18365166	          0.90283869	         -6.77754276	          1.95154902	          0.82295615	          0.01288391	        -15.57886806	         -0.63026200	         -0.46843258	         -6.48305319	          8.69112269	         26.62556903	         30.59916878	         -1.44541586	         -5.70127523	         -7.72761692	          2.99603181	          0.26308080	         -6.31287767	          0.47396429	          6.88334812	          0.09519607	          0.00999999	          0.01000000	          0.05710341	          0.01000006	          0.01130705	          0.21328168	          0.01552828	          0.42333840	          0.01000008	          0.01000000	          0.31318728	          0.25785449	          0.02291697	          0.10776470	          0.14795339	          0.01000002	          0.00999999	          0.20709197	          0.11065068	          0.19771188	          0.05624196	          0.09796745	          0.01000009	          0.01000000	          0.01714007	          0.01324884	          0.28931557	
          1.73854810	         -4.21987028	          0.88648620	         -6.88203838	          1.96711526	          0.82157885	          0.01254818	        -15.60930637	         -0.76936829	         -0.78823236	         -8.29965596	          8.04491876	         28.31491275	         30.47127168	         -1.31829514	         -5.34260749	         -9.34441256	          2.64814753	          0.24924828	         -6.07373278	         -0.01463062	          7.20982337	          0.11150853	          0.00999999	          0.01000001	          0.04790985	          0.01719869	          0.01955249	          0.17894370	          0.01302826	          0.35518164	          0.01000001	          0.01000000	          0.27558895	          0.24684293	          0.01922738	          0.09041477	          0.12413315	          0.01000001	          0.01000007	          0.17375052	          0.09576311	          0.16588064	          0.10147523	          0.08219486	          0.01000000	          0.00999999	          0.01438055	          0.01111580	          0.35783240	
          1.75006166	         -4.24711219	          0.88720994	         -6.94778636	          1.98292203	          0.82049975	          0.01208513	        -15.48789334	         -0.93994812	         -1.13301807	        -10.40495147	          7.22763745	         29.97062680	         30.18096219	         -1.18061737	         -5.04466037	        -10.68289328	          2.18378109	          0.24031930	         -5.81778726	         -0.51760382	          7.50556242	          0.12399617	          0.00999999	          0.01000000	          0.04019645	          0.01442975	          0.01640496	          0.15013407	          0.01093074	          0.29799800	          0.01000003	          0.01000000	          0.23121960	          0.23008996	          0.01613180	          0.10369220	          0.10414792	          0.01000001	          0.05498611	          0.16970971	          0.08328677	          0.13917415	          0.11498422	          0.06896162	          0.01000000	          0.01000000	          0.01206531	          0.00999999	          0.41529777	
          1.76157522	         -4.26612747	          0.88494353	         -6.97472268	          1.99876695	          0.81982070	          0.01150162	        -15.16593654	         -1.12096094	         -1.50496422	        -12.85158118	          6.22526324	         31.49588635	         29.83419096	         -1.04330490	         -4.85329175	        -11.93477782	          1.71875679	          0.22717109	         -5.56815783	         -1.01224673	          7.76537258	          0.15055126	          0.00999999	          0.01000000	          0.03372489	          0.01210669	          0.01770975	          0.12596275	          0.01000007	          0.25002083	          0.01000002	          0.01000000	          0.19399363	          0.21107025	          0.01353461	          0.10675949	          0.08738028	          0.01000001	          0.09455570	          0.20820361	          0.07150514	          0.11676736	          0.11965600	          0.05785892	          0.01000001	          0.01000003	          0.01012282	          0.01000000	          0.44755069	
          1.77308879	         -4.27700478	          0.88221935	         -6.96656961	          2.01450551	          0.81960849	          0.01081206	        -14.60903355	         -1.31739448	         -1.90767137	        -15.67181163	          5.05738769	         32.72517240	         29.49772090	         -0.90628128	         -4.74946683	        -13.22630048	          1.38977169	          0.21409663	         -5.33625947	         -1.50014783	          7.98806143	          0.17409022	          0.00999999	          0.01000000	          0.02829524	          0.06880441	          0.02886362	          0.10568297	          0.01000001	          0.20976790	          0.01000001	          0.00999999	          0.16276098	          0.18158280	          0.01135556	          0.10564674	          0.07331221	          0.01000001	          0.12357859	          0.23259731	          0.06695443	          0.09796802	          0.11945508	          0.04854373	          0.01000001	          0.04088364	          0.01000000	          0.01000000	          0.46251429	
          1.78460235	         -4.28135793	          0.87705513	         -6.92439776	          2.03002565	          0.81994614	          0.01004187	        -13.78764346	         -1.52819760	         -2.36283036	        -18.88670230	          3.75269106	         33.42921450	         29.15810904	         -0.77072015	         -4.71065773	        -14.52091883	          1.25713753	          0.19922024	         -5.12939212	         -1.97855954	          8.17247458	          0.18811027	          0.01000000	          0.01000000	          0.02373975	          0.14242911	          0.03580473	          0.08866820	          0.01000000	          0.17599562	          0.01000000	          0.00999999	          0.13655674	          0.15234827	          0.01000000	          0.10024388	          0.06150906	          0.01000001	          0.14016308	          0.25016911	          0.06660233	          0.08219534	          0.10909200	          0.04072827	          0.01000000	          0.08140634	          0.01000000	          0.01000000	          0.45688852	
          1.79611591	         -4.28127638	          0.86409701	         -6.84856017	          2.04525912	          0.82088172	          0.00921978	        -12.68363459	         -1.75405397	         -2.88695666	        -22.50323204	          2.33387532	         33.39383853	         28.76126443	         -0.63514697	         -4.70401938	        -15.72169512	          1.38127895	          0.18875263	         -4.95143000	         -2.44209581	          8.31750908	          0.19227269	          0.01000000	          0.01000000	          0.01991769	          0.20255350	          0.03818203	          0.07439279	          0.01000000	          0.14766063	          0.01000000	          0.00999999	          0.11457133	          0.12782046	          0.00999999	          0.09509378	          0.05160621	          0.01000001	          0.14942696	          0.25631018	          0.06865611	          0.06896204	          0.09586676	          0.03417109	          0.01000000	          0.10942841	          0.01000000	          0.01000000	          0.42098782	
          1.80762948	         -4.27867271	          0.83626949	         -6.73883470	          2.06016803	          0.82240097	          0.00837299	        -11.30247377	         -1.99597491	         -3.46709880	        -26.45702089	          0.68190664	         32.65419566	         28.25730590	         -0.49895065	         -4.69029980	        -16.73478289	          1.77386592	          0.20210758	         -4.80481790	         -2.88446765	          8.42151133	          0.19282208	          0.01000000	          0.01000000	          0.01671098	          0.26978062	          0.04699828	          0.06241572	          0.01000000	          0.12388752	          0.01000000	          0.00999999	          0.09612554	          0.10724158	          0.00999999	          0.08210707	          0.04329770	          0.01000001	          0.15091896	          0.24697580	          0.07081462	          0.05785928	          0.08043241	          0.02866960	          0.01000000	          0.14294808	          0.01000001	          0.01000000	          0.36605431	
